# xmcd
#
# Track frame offsets: 
#        150
#        25403
#        36996
#        54878
#        70067
#        87745
#        100837
#        117116
#        137004
#        151597
#        166159
#        187489
#        204858
#        222193
#
# Disc length: 3203 seconds
#
# Revision: 0
# Processed by: cddbd v1.5.2PL0 Copyright (c) Steve Scherf et al.
# Submitted via: ExactAudioCopy v1.0b3
#
DISCID=bd0c810e
DTITLE=NIXON,JAMES NICK - Back Down South
DYEAR=2005
DGENRE=Blues
TTITLE0=Back Down South
TTITLE1=Baby Just Be You
TTITLE2=Don't Let Love Walk Out The Door
TTITLE3=How To Sing The Blues
TTITLE4=Snake In The grass
TTITLE5=Numbers Man
TTITLE6=I'm So In Love With you
TTITLE7=Try Love On For Size
TTITLE8=Till The Break Of Dawn
TTITLE9=Close To You
TTITLE10=Please Never Ever Leave Me Again
TTITLE11=Baby Just Read My Mind
TTITLE12=You're The Best Part Of The Day
TTITLE13=What Happened To Our Love
EXTD=
EXTT0=
EXTT1=
EXTT2=
EXTT3=
EXTT4=
EXTT5=
EXTT6=
EXTT7=
EXTT8=
EXTT9=
EXTT10=
EXTT11=
EXTT12=
EXTT13=
PLAYORDER=
